<?xml version="1.0" encoding="UTF-8" standalone="no"?>
<!-- Created with Inkscape (http://www.inkscape.org/) -->

<svg
   version="1.1"
   id="svg7923"
   xml:space="preserve"
   width="682.66669"
   height="682.66669"
   viewBox="0 0 682.66669 682.66669"
   xmlns="http://www.w3.org/2000/svg"
   xmlns:svg="http://www.w3.org/2000/svg"><defs
     id="defs7927"><clipPath
       clipPathUnits="userSpaceOnUse"
       id="clipPath7937"><path
         d="M 0,512 H 512 V 0 H 0 Z"
         id="path7935" /></clipPath></defs><g
     id="g7929"
     transform="matrix(1.3333333,0,0,-1.3333333,0,682.66667)"><g
       id="g7931"><g
         id="g7933"
         clip-path="url(#clipPath7937)"><g
           id="g7939"
           transform="translate(179.46,20.4941)"><path
             d="m 0,0 c -29.934,13.312 -42.118,35.365 -44.916,59.068 l 160.018,105.213 h 54.364 c 0,0 9.766,-15.935 17.995,-38.264 L 144.46,31.244 Z"
             style="fill:#ffb2c1;fill-opacity:1;fill-rule:nonzero;stroke:none"
             id="path7941" /></g><g
           id="g7943"
           transform="translate(197.4746,120.9395)"><path
             d="m 0,0 -62.931,-41.377 c 2.798,-23.703 14.982,-45.757 44.916,-59.068 l 81.754,17.681 C 38.692,-59.502 17.05,-31.053 0,0"
             style="fill:#ff9db0;fill-opacity:1;fill-rule:nonzero;stroke:none"
             id="path7945" /></g><g
           id="g7947"
           transform="translate(294.562,184.7754)"><path
             d="M 0,0 C -33.336,-36.062 -85.681,-79.409 -160.018,-105.213 -165.859,-56.127 -131.488,0 -131.488,0 Z"
             style="fill:#ffc9d3;fill-opacity:1;fill-rule:nonzero;stroke:none"
             id="path7949" /></g><g
           id="g7951"
           transform="translate(256,7.5)"><path
             d="M 0,0 C -33.397,0 -58.279,4.868 -76.54,12.994 16.939,41.842 77.647,98.737 110.921,139.011 130.156,86.9 141.081,0 0,0"
             style="fill:#ffc9d3;fill-opacity:1;fill-rule:nonzero;stroke:none"
             id="path7953" /></g><g
           id="g7955"
           transform="translate(304.666,502.0928)"><path
             d="m 0,0 c -20.745,-7.94 -29.975,-20.123 -29.975,-20.123 l 14.038,-58.319 h 48.814 c 11.74,15.443 15.746,30.798 16.063,44.129 C 49.548,-8.816 23.82,9.116 0,0"
             style="fill:#fd5f7e;fill-opacity:1;fill-rule:nonzero;stroke:none"
             id="path7957" /></g><g
           id="g7959"
           transform="translate(207.334,502.0928)"><path
             d="M 0,0 C 20.745,-7.94 29.975,-20.123 29.975,-20.123 L 15.937,-78.442 H -32.878 C -44.617,-62.999 -48.623,-47.644 -48.94,-34.313 -49.548,-8.816 -23.82,9.116 0,0"
             style="fill:#fd5f7e;fill-opacity:1;fill-rule:nonzero;stroke:none"
             id="path7961" /></g><g
           id="g7963"
           transform="translate(256,487.8379)"><path
             d="m 0,0 v 0 c -18.076,0 -32.729,-14.653 -32.729,-32.729 v -30.312 h 65.458 v 30.312 C 32.729,-14.653 18.076,0 0,0"
             style="fill:#ff748f;fill-opacity:1;fill-rule:nonzero;stroke:none"
             id="path7965" /></g><g
           id="g7967"
           transform="translate(361.8589,300.0469)"><path
             d="m 0,0 c 0,-23.313 18.899,-42.213 42.213,-42.213 23.314,0 42.213,18.9 42.213,42.213 0,23.314 -18.899,42.214 -42.213,42.214 C 18.899,42.214 0,23.314 0,0"
             style="fill:#ffcabd;fill-opacity:1;fill-rule:nonzero;stroke:none"
             id="path7969" /></g><g
           id="g7971"
           transform="translate(170.1553,184.7754)"><path
             d="m 0,0 h -7.082 c 0,0 -34.371,-56.127 -28.529,-105.213 25.363,8.804 48.162,19.652 68.524,31.556 C 19.162,-50.397 8.018,-25.461 0,0"
             style="fill:#ffb2c1;fill-opacity:1;fill-rule:nonzero;stroke:none"
             id="path7973" /></g><g
           id="g7975"
           transform="translate(404.0718,300.0469)"><path
             d="m 0,0 c 0,-81.777 -66.294,-148.071 -148.072,-148.071 -81.778,0 -148.072,66.294 -148.072,148.071 0,81.778 66.294,148.072 148.072,148.072 C -66.294,148.072 0,81.778 0,0"
             style="fill:#ffdcce;fill-opacity:1;fill-rule:nonzero;stroke:none"
             id="path7977" /></g><g
           id="g7979"
           transform="translate(223.958,444.6318)"><path
             d="m 0,0 c -52.764,-11.642 -94.961,-51.422 -110.048,-102.801 -1.955,0.278 -3.951,0.43 -5.982,0.43 -23.314,0 -42.213,-18.9 -42.213,-42.214 0,-23.313 18.899,-42.213 42.213,-42.213 2.033,0 4.031,0.152 5.988,0.431 9.724,-33.112 30.702,-61.41 58.517,-80.462 -10.793,31.873 -16.718,64.741 -16.718,96.316 0,66.114 25.96,126.163 68.243,170.513"
             style="fill:#ffcabd;fill-opacity:1;fill-rule:nonzero;stroke:none"
             id="path7981" /></g><g
           id="g7983"
           transform="translate(205.3174,291.9541)"><path
             d="m 0,0 c 0,-13.035 -13.269,-23.601 -29.636,-23.601 -16.367,0 -29.635,10.566 -29.635,23.601 0,13.034 13.268,23.601 29.635,23.601 C -13.269,23.601 0,13.034 0,0"
             style="fill:#ff9db0;fill-opacity:1;fill-rule:nonzero;stroke:none"
             id="path7985" /></g><g
           id="g7987"
           transform="translate(306.6826,291.9541)"><path
             d="m 0,0 c 0,-13.035 13.268,-23.601 29.636,-23.601 16.367,0 29.635,10.566 29.635,23.601 0,13.034 -13.268,23.601 -29.635,23.601 C 13.268,23.601 0,13.034 0,0"
             style="fill:#ff9db0;fill-opacity:1;fill-rule:nonzero;stroke:none"
             id="path7989" /></g><g
           id="g7991"
           transform="translate(249.3809,49.8086)"><path
             d="m 0,0 c -20.897,-11.276 -44.158,-21.364 -69.921,-29.314 18.261,-8.127 43.143,-12.995 76.54,-12.995 15.26,0 28.734,1.021 40.619,2.901 C 30.345,-28.414 14.511,-15.086 0,0"
             style="fill:#ffb2c1;fill-opacity:1;fill-rule:nonzero;stroke:none"
             id="path7993" /></g><g
           id="g7995"
           transform="translate(207.0596,317.6357)"><path
             d="M 0,0 C 0,7.79 -6.315,14.105 -14.106,14.105 -21.897,14.105 -28.212,7.79 -28.212,0"
             style="fill:none;stroke:#000000;stroke-width:15;stroke-linecap:round;stroke-linejoin:round;stroke-miterlimit:10;stroke-dasharray:none;stroke-opacity:1"
             id="path7997" /></g><g
           id="g7999"
           transform="translate(304.9404,317.6357)"><path
             d="M 0,0 C 0,7.79 6.315,14.105 14.106,14.105 21.896,14.105 28.212,7.79 28.212,0"
             style="fill:none;stroke:#000000;stroke-width:15;stroke-linecap:round;stroke-linejoin:round;stroke-miterlimit:10;stroke-dasharray:none;stroke-opacity:1"
             id="path8001" /></g><g
           id="g8003"
           transform="translate(241.0371,301.1484)"><path
             d="m 0,0 c 3.638,-4.175 8.99,-6.817 14.963,-6.817 5.972,0 11.325,2.642 14.963,6.817"
             style="fill:none;stroke:#000000;stroke-width:15;stroke-linecap:round;stroke-linejoin:round;stroke-miterlimit:10;stroke-dasharray:none;stroke-opacity:1"
             id="path8005" /></g><g
           id="g8007"
           transform="translate(107.9282,300.0469)"><path
             d="M 0,0 C 0,14.512 2.097,28.531 5.988,41.783 4.031,42.062 2.033,42.214 0,42.214 c -23.314,0 -42.213,-18.9 -42.213,-42.214 0,-23.313 18.899,-42.213 42.213,-42.213 2.033,0 4.031,0.152 5.988,0.431 C 2.097,-28.53 0,-14.511 0,0 Z"
             style="fill:none;stroke:#000000;stroke-width:15;stroke-linecap:round;stroke-linejoin:round;stroke-miterlimit:10;stroke-dasharray:none;stroke-opacity:1"
             id="path8009" /></g><g
           id="g8011"
           transform="translate(404.0718,342.2607)"><path
             d="M 0,0 C -2.034,0 -4.031,-0.152 -5.988,-0.431 -2.097,-13.683 0,-27.702 0,-42.214 c 0,-14.511 -2.097,-28.53 -5.988,-41.782 1.957,-0.278 3.954,-0.431 5.988,-0.431 23.314,0 42.213,18.9 42.213,42.213 C 42.213,-18.899 23.314,0 0,0 Z"
             style="fill:none;stroke:#000000;stroke-width:15;stroke-linecap:round;stroke-linejoin:round;stroke-miterlimit:10;stroke-dasharray:none;stroke-opacity:1"
             id="path8013" /></g><g
           id="g8015"
           transform="translate(174.4565,423.6504)"><path
             d="m 0,0 c 14.657,9.688 31.135,16.843 48.814,20.832 v 10.626 c 0,11.125 5.555,20.947 14.039,26.861 0,0 -9.23,12.183 -29.976,20.123 C 9.058,87.559 -16.671,69.626 -16.063,44.129 -15.745,30.799 -11.74,15.443 0,0 Z"
             style="fill:none;stroke:#000000;stroke-width:15;stroke-linecap:round;stroke-linejoin:round;stroke-miterlimit:10;stroke-dasharray:none;stroke-opacity:1"
             id="path8017" /></g><g
           id="g8019"
           transform="translate(256,448.1191)"><path
             d="M 0,0 C 11.248,0 22.2,-1.261 32.729,-3.637 V 6.989 c 0,18.076 -14.653,32.73 -32.729,32.73 -18.076,0 -32.729,-14.654 -32.729,-32.73 V -3.637 C -22.2,-1.261 -11.248,0 0,0 Z"
             style="fill:none;stroke:#000000;stroke-width:15;stroke-linecap:round;stroke-linejoin:round;stroke-miterlimit:10;stroke-dasharray:none;stroke-opacity:1"
             id="path8021" /></g><g
           id="g8023"
           transform="translate(288.7295,455.1084)"><path
             d="m 0,0 v -10.626 c 17.679,-3.989 34.157,-11.144 48.814,-20.832 11.74,15.443 15.745,30.799 16.062,44.129 0.609,25.497 -25.12,43.43 -48.939,34.313 C -4.809,39.044 -14.039,26.861 -14.039,26.861 -5.556,20.947 0,11.125 0,0 Z"
             style="fill:none;stroke:#000000;stroke-width:15;stroke-linecap:round;stroke-linejoin:round;stroke-miterlimit:10;stroke-dasharray:none;stroke-opacity:1"
             id="path8025" /></g><g
           id="g8027"
           transform="translate(309.7231,90.0078)"><path
             d="m 0,0 c -33.166,-26.791 -76.229,-52.839 -130.264,-69.514 18.262,-8.127 43.143,-12.994 76.541,-12.994 141.08,0 130.156,86.901 110.921,139.011 C 47.805,45.134 36.223,32.439 22.337,19.426"
             style="fill:none;stroke:#000000;stroke-width:15;stroke-linecap:round;stroke-linejoin:round;stroke-miterlimit:10;stroke-dasharray:none;stroke-opacity:1"
             id="path8029" /></g><g
           id="g8031"
           transform="translate(201.0757,109.9619)"><path
             d="m 0,0 c 22.781,13.139 42.549,27.617 59.465,42.089 -1.509,-0.046 -3.021,-0.075 -4.541,-0.075 -35.196,0 -67.518,12.288 -92.927,32.798 -0.062,-0.101 -34.365,-56.169 -28.529,-105.212 14.267,4.953 27.717,10.555 40.384,16.625"
             style="fill:none;stroke:#000000;stroke-width:15;stroke-linecap:round;stroke-linejoin:round;stroke-miterlimit:10;stroke-dasharray:none;stroke-opacity:1"
             id="path8033" /></g><g
           id="g8035"
           transform="translate(332.0601,109.4336)"><path
             d="M 0,0 C 13.886,13.014 25.468,25.708 34.861,37.077 26.645,59.372 16.898,75.29 16.868,75.339 -7.445,55.715 -38.087,43.624 -71.52,42.617 -88.436,28.146 -108.204,13.667 -130.984,0.528"
             style="fill:none;stroke:#000000;stroke-width:15;stroke-linecap:round;stroke-linejoin:round;stroke-miterlimit:10;stroke-dasharray:none;stroke-opacity:1"
             id="path8037" /></g><g
           id="g8039"
           transform="translate(174.9272,96.1865)"><path
             d="m 0,0 c -12.667,-6.069 -26.116,-11.672 -40.383,-16.625 2.797,-23.702 14.982,-45.756 44.915,-59.067 54.035,16.674 97.098,42.722 130.264,69.512"
             style="fill:none;stroke:#000000;stroke-width:15;stroke-linecap:round;stroke-linejoin:round;stroke-miterlimit:10;stroke-dasharray:none;stroke-opacity:1"
             id="path8041" /></g><g
           id="g8043"
           transform="translate(404.0718,300.0469)"><path
             d="m 0,0 c 0,-81.777 -66.294,-148.071 -148.072,-148.071 -81.778,0 -148.072,66.294 -148.072,148.071 0,81.778 66.294,148.072 148.072,148.072 C -66.294,148.072 0,81.778 0,0 Z"
             style="fill:none;stroke:#000000;stroke-width:15;stroke-linecap:round;stroke-linejoin:round;stroke-miterlimit:10;stroke-dasharray:none;stroke-opacity:1"
             id="path8045" /></g></g></g></g></svg>
